{"glyphs":{":":{"x_min":0,"x_max":192,"ha":192,"o":"m 176 319 q 176 285 153 260 q 130 236 96 236 q 63 236 40 258 q 17 281 17 314 q 17 347 40 370 q 63 394 95 394 q 129 394 152 372 q 176 351 176 319 z m 176 67 q 176 33 153 8 q 130 -16 96 -16 q 63 -16 40 6 q 17 29 17 62 q 17 95 40 118 q 63 142 95 142 q 128 142 152 120 q 176 99 176 67 z"},"$":{"x_min":0,"x_max":490,"ha":490,"o":"m 466 493 q 466 477 444 427 q 421 377 423 337 l 408 337 q 407 378 352 408 q 308 431 277 431 q 248 431 248 422 q 248 401 303 372 q 382 330 406 311 q 461 266 461 207 q 461 149 416 110 q 375 74 310 63 q 303 -40 232 -70 q 210 -79 149 -108 q 184 -30 193 63 q 131 71 91 91 q 45 114 45 145 q 45 155 56 179 q 66 203 66 218 q 66 264 20 307 q -9 317 -30 320 l -29 335 q 38 324 111 274 q 176 230 215 230 q 235 230 235 236 q 235 256 180 285 q 99 328 76 345 q 21 389 21 442 q 21 490 73 526 q 119 557 191 572 q 203 683 298 727 q 317 733 332 748 l 346 739 q 319 674 310 578 q 364 571 415 543 q 466 515 466 493 z"},"?":{"x_min":0,"x_max":604,"ha":604,"o":"m 586 494 q 586 452 556 421 q 546 410 492 369 q 448 337 430 305 q 419 286 417 248 q 415 205 411 194 q 403 171 374 171 q 361 171 334 182 q 307 194 285 194 q 275 194 264 192 q 211 183 173 136 q 172 83 138 17 l 123 25 q 155 86 158 140 q 158 141 157 141 q 157 142 158 142 l 158 169 q 158 255 188 323 q 207 364 245 412 q 275 451 275 463 q 275 489 214 489 q 115 489 70 375 l 69 375 q 67 362 57 319 l 42 323 q 55 376 55 440 q 55 482 35 536 q 15 589 15 609 q 15 645 99 676 q 183 708 274 708 q 387 708 486 642 q 586 575 586 494 z m 400 68 q 400 21 367 -12 q 334 -46 288 -46 q 242 -46 209 -12 q 176 21 176 68 q 176 114 208 146 q 241 179 288 179 q 335 179 368 146 q 400 114 400 68 z"},"<":{"x_min":0,"x_max":447,"ha":447,"o":"m 441 419 q 441 352 373 303 q 350 285 272 249 q 320 186 377 186 q 402 186 423 230 l 438 228 q 444 156 418 90 q 391 18 347 18 q 324 18 273 64 q 178 151 160 165 q 78 230 -6 264 q 129 326 264 389 q 378 448 378 496 q 378 513 372 539 l 381 544 q 441 495 441 419 z"},"'":{"x_min":0,"x_max":194,"ha":194,"o":"m 180 635 q 168 555 162 522 q 144 424 121 366 l 106 369 q 103 469 20 631 q 66 656 109 656 q 149 656 180 635 z"},"=":{"x_min":0,"x_max":356,"ha":356,"o":"m 357 490 q 339 484 328 433 q 314 366 304 346 q 281 301 234 301 q 216 301 188 306 q 159 310 140 310 q 91 310 68 301 q 35 289 7 250 l -7 260 q 9 285 47 387 q 70 446 109 446 q 129 446 160 438 q 190 431 211 431 q 243 431 284 456 q 288 459 350 505 z m 357 332 q 339 326 328 275 q 314 208 304 188 q 281 143 234 143 q 216 143 188 147 q 159 151 140 151 q 91 151 68 143 q 35 131 7 92 l -7 102 q 9 127 47 228 q 70 288 109 288 q 129 288 160 280 q 190 273 211 273 q 243 273 284 298 q 288 301 350 347 z"},"a":{"x_min":0,"x_max":588,"ha":588,"o":"m 654 57 q 618 57 572 18 q 527 -20 497 -20 q 451 -20 416 -3 q 380 14 377 14 q 367 14 316 -8 q 265 -31 214 -31 q 121 -31 72 12 q 24 55 24 129 q 24 244 104 354 q 185 465 271 465 q 299 465 341 449 q 383 433 391 433 q 402 433 442 456 q 483 479 514 479 q 530 479 542 467 q 554 455 554 440 q 554 436 538 349 q 523 262 523 197 q 523 130 530 105 q 543 57 587 47 q 622 73 654 73 z m 338 263 q 338 294 309 294 q 266 294 236 252 q 209 215 209 171 q 209 142 243 142 q 282 142 312 188 q 338 228 338 263 z"},"L":{"x_min":0,"x_max":848,"ha":848,"o":"m 835 330 q 835 284 818 234 q 796 143 773 53 q 739 -42 648 -42 q 575 -42 462 -15 q 350 12 282 12 q 211 12 187 -6 q 150 -35 155 -131 l 139 -132 q 144 -39 182 171 q 217 365 217 432 q 217 648 154 648 l 154 649 q 102 638 51 640 q 28 641 -13 646 l -11 662 q 8 660 51 656 q 128 652 241 689 q 359 728 402 728 q 462 728 462 669 q 462 677 437 511 q 413 349 416 204 q 444 207 472 207 q 507 207 571 199 q 635 191 672 191 q 721 191 767 226 q 817 265 817 318 q 817 367 816 374 q 814 403 800 428 l 814 436 q 835 397 835 330 z"},"3":{"x_min":0,"x_max":732,"ha":732,"o":"m 714 211 q 714 91 603 22 q 503 -39 355 -39 q 248 -39 175 -14 q 81 18 81 82 q 81 102 88 133 q 94 164 94 183 q 94 242 58 291 q 23 340 -37 358 l -33 373 q 7 361 82 305 q 177 233 212 213 q 293 166 365 166 q 460 166 460 219 q 460 259 399 285 q 342 309 268 309 q 248 309 230 307 q 242 323 317 392 q 370 441 370 478 q 370 500 344 500 q 295 500 227 459 q 149 412 149 356 q 149 345 153 334 l 138 331 q 134 403 109 466 q 85 526 85 547 q 85 601 197 650 q 306 697 416 697 q 522 697 590 665 q 676 626 676 545 q 676 501 648 462 q 632 440 588 399 q 714 345 714 211 z"},";":{"x_min":0,"x_max":217,"ha":217,"o":"m 182 319 q 182 285 159 260 q 136 236 102 236 q 69 236 46 258 q 23 281 23 314 q 23 347 46 370 q 69 394 101 394 q 135 394 158 372 q 182 351 182 319 z m 221 130 q 197 112 177 52 q 154 -20 121 -62 q 65 -132 -53 -186 q 21 -64 29 38 q 33 89 93 112 q 153 129 213 145 z"},"J":{"x_min":0,"x_max":416,"ha":416,"o":"m 415 666 q 415 678 396 542 q 377 405 377 278 q 377 225 385 170 q 393 114 393 108 q 393 70 363 48 q 345 36 292 18 q 240 1 215 -17 q 178 -43 136 -92 q 93 -140 66 -159 q 19 -192 -56 -210 l -61 -194 q 26 -165 62 -136 q 120 -88 149 18 q 182 142 182 372 q 182 621 138 648 q 108 643 84 643 q 61 643 9 652 l 11 668 q 57 660 84 660 q 136 660 226 688 q 316 716 360 716 q 382 716 398 702 q 415 687 415 666 z"},"V":{"x_min":0,"x_max":860,"ha":860,"o":"m 863 552 q 863 522 787 446 q 677 336 633 278 q 540 157 510 27 q 426 11 387 -49 l 386 -49 q 389 -85 388 -111 l 372 -111 q 368 50 338 183 q 266 500 74 620 q 32 615 -10 615 l -10 632 q 68 632 144 650 q 185 660 253 683 q 305 701 323 701 q 359 701 411 615 q 455 543 480 466 q 496 499 555 553 q 603 596 603 630 q 603 660 576 678 q 549 696 515 696 q 476 696 453 683 l 445 697 q 471 713 515 713 q 638 713 747 667 q 863 618 863 552 z"},"\"":{"x_min":0,"x_max":360,"ha":360,"o":"m 353 635 q 333 466 294 366 l 279 369 q 276 469 193 631 q 239 656 282 656 q 322 656 353 635 z m 180 635 q 168 555 162 522 q 144 424 121 366 l 106 369 q 103 469 20 631 q 66 656 109 656 q 149 656 180 635 z"},"7":{"x_min":0,"x_max":588,"ha":588,"o":"m 677 689 q 533 540 404 311 q 377 264 351 170 q 320 63 310 38 q 285 -20 249 -20 q 230 -20 201 -10 q 172 0 154 0 q 119 0 102 -21 q 84 -42 73 -93 l 58 -90 q 89 100 168 284 q 216 394 266 473 q 256 474 190 486 q 142 494 114 494 q 67 494 30 443 q 43 401 73 369 l 62 357 q 24 399 12 449 q 4 483 4 549 q 4 637 42 669 q 68 690 126 690 q 189 690 304 672 q 419 653 483 653 q 525 653 572 663 q 625 676 677 689 z"},"S":{"x_min":0,"x_max":624,"ha":624,"o":"m 606 615 q 606 598 585 552 q 564 505 564 453 q 564 396 572 362 l 556 359 q 545 417 506 453 q 468 489 414 489 q 378 489 378 471 q 378 452 433 414 q 507 364 537 331 q 592 270 592 192 q 592 88 494 26 q 409 -29 285 -35 q 210 -39 138 -18 q 61 4 61 39 q 61 60 82 102 q 103 145 103 174 q 103 277 -6 322 l 0 338 q 25 330 77 296 q 139 256 167 242 q 221 215 267 215 q 304 215 304 234 q 304 262 244 305 q 147 374 132 387 q 72 442 72 501 q 72 609 181 662 q 269 704 405 704 q 480 704 537 683 q 606 658 606 615 z"},"}":{"x_min":0,"x_max":320,"ha":320,"o":"m 313 324 q 265 303 258 298 q 240 282 240 241 q 240 213 264 169 q 288 125 288 65 q 288 -20 202 -64 q 133 -99 34 -99 q -9 -99 -42 -92 l -38 -77 q -20 -81 -3 -81 q 54 -81 92 -45 q 130 -9 130 52 q 130 102 96 141 q 62 180 62 238 q 62 292 114 314 q 62 339 62 391 q 62 452 96 494 q 130 536 130 577 q 130 638 92 674 q 54 711 -3 711 q -21 711 -38 707 l -43 722 q -3 735 53 735 q 146 735 211 700 q 288 657 288 576 q 288 516 264 472 q 240 428 240 400 q 240 359 258 345 q 268 337 313 324 z"},"Z":{"x_min":0,"x_max":1000,"ha":1000,"o":"m 996 279 q 996 160 940 50 q 876 -75 785 -75 q 710 -75 548 -39 q 387 -3 284 -3 q 208 -3 144 -16 q 93 -26 -6 -56 q 7 -24 166 160 q 325 345 373 447 q 350 445 317 449 q 278 453 260 453 q 170 453 158 400 q 172 357 189 332 l 175 322 q 120 405 120 531 q 120 698 251 698 q 314 698 445 676 q 576 653 659 653 q 703 653 744 664 q 749 665 828 689 l 836 675 q 773 605 719 534 q 587 362 518 209 q 587 191 647 191 q 756 191 847 210 q 953 232 979 272 l 979 279 q 979 324 954 374 l 970 382 q 996 325 996 279 z"},"x":{"x_min":0,"x_max":767,"ha":767,"o":"m 806 381 l 803 366 q 777 373 750 373 q 668 373 587 311 q 539 275 506 231 q 573 100 717 54 q 723 55 736 55 q 742 55 782 48 l 778 32 q 749 39 736 39 q 673 39 616 4 q 560 -31 538 -31 q 485 -31 430 24 q 411 42 365 103 q 332 87 267 19 q 215 -35 172 -35 q 151 -35 73 -5 q -5 25 -66 25 q -84 25 -101 23 l -102 38 q -46 40 13 60 q 155 107 289 236 q 189 403 55 403 q 37 403 26 400 l 22 415 q 47 423 87 416 q 156 425 212 461 q 262 493 292 493 q 338 493 372 448 q 379 437 422 357 q 463 397 505 436 q 556 484 591 484 q 629 484 659 460 q 686 437 713 414 q 751 387 806 381 z"},")":{"x_min":0,"x_max":373,"ha":373,"o":"m 360 320 q 360 141 279 26 q 185 -106 9 -106 l 9 -90 q 82 -90 133 52 q 178 179 178 326 q 178 466 136 577 q 88 706 9 706 l 9 722 q 176 722 273 599 q 360 488 360 320 z"},"&":{"x_min":0,"x_max":952,"ha":952,"o":"m 966 142 q 956 128 902 96 q 848 64 828 44 q 746 -42 705 -42 q 633 -42 513 48 q 430 -46 305 -46 q 182 -46 102 11 q 18 72 18 174 q 18 261 59 328 q 102 401 177 419 q 149 470 149 500 q 149 565 243 615 q 332 663 434 663 q 511 663 581 635 q 657 605 657 565 q 657 545 627 518 q 586 482 574 463 q 546 422 550 362 l 535 364 q 540 376 540 388 q 540 424 506 454 q 471 484 432 484 q 400 484 400 471 q 400 439 448 377 q 497 315 569 256 q 593 296 598 331 l 613 330 q 611 274 602 230 q 749 127 876 127 q 931 127 952 151 z m 392 153 q 334 207 266 292 q 250 268 250 241 q 250 203 279 176 q 308 150 345 150 q 377 150 392 153 z"},"_":{"x_min":0,"x_max":695,"ha":695,"o":"m 709 -128 l -22 -128 l -22 -64 l 709 -64 z"},"v":{"x_min":0,"x_max":619,"ha":619,"o":"m 614 382 q 614 342 568 301 q 487 228 473 212 q 416 142 396 42 q 293 -4 288 -62 q 290 -79 293 -113 l 278 -115 q 254 122 148 277 q 86 366 21 403 q -12 395 -46 392 l -48 408 q 22 413 105 447 q 184 480 197 480 q 230 480 273 428 q 316 376 328 316 q 342 337 392 379 q 428 409 428 434 q 428 468 369 489 q 324 478 288 465 l 282 480 q 364 510 432 510 q 502 510 556 475 q 614 437 614 382 z"},"O":{"x_min":0,"x_max":745,"ha":745,"o":"m 732 345 q 732 189 633 81 q 530 -30 372 -30 q 224 -30 118 74 q 13 177 13 324 q 13 474 117 582 q 221 689 369 689 q 518 689 625 591 q 732 493 732 345 z m 469 285 q 469 350 446 408 q 416 486 357 486 q 320 486 299 452 q 279 422 279 381 q 279 314 316 254 q 353 194 402 194 q 431 194 450 222 q 469 250 469 285 z"},"(":{"x_min":0,"x_max":373,"ha":373,"o":"m 359 -106 q 183 -106 89 26 q 8 141 8 320 q 8 488 95 599 q 192 722 359 722 l 359 706 q 280 706 232 577 q 190 466 190 326 q 190 179 235 52 q 285 -90 359 -90 z"},"C":{"x_min":0,"x_max":630,"ha":630,"o":"m 646 340 q 626 303 605 266 q 580 217 572 174 q 568 151 570 122 q 573 78 573 72 q 573 25 523 -2 q 480 -25 422 -25 q 240 -25 131 76 q 22 178 22 338 q 22 498 158 602 q 286 700 460 700 q 627 700 627 640 q 627 615 597 573 q 553 513 540 486 q 513 432 501 340 l 485 342 q 487 363 495 397 q 501 427 501 431 q 501 455 474 477 q 446 499 412 499 q 351 499 304 456 q 257 414 257 354 q 257 301 310 262 q 362 224 426 224 q 579 224 630 347 z"},"W":{"x_min":0,"x_max":950,"ha":950,"o":"m 1100 498 l 1084 494 q 1076 524 1044 568 q 934 566 852 307 q 818 199 792 48 q 735 30 688 -27 q 690 -39 692 -65 l 676 -67 q 663 144 547 290 q 508 232 468 175 q 419 99 407 34 q 349 8 311 -40 q 312 -45 312 -54 q 313 -63 313 -67 l 297 -69 q 271 294 154 486 q 106 566 43 605 q 44 607 44 606 q -2 603 -52 610 l -50 626 q -18 621 12 621 q 93 621 188 658 q 283 695 311 695 q 383 695 424 512 q 445 556 495 614 q 557 687 562 694 q 575 658 620 598 q 671 530 684 504 q 718 590 765 643 q 818 703 873 703 q 951 703 1027 616 q 1088 547 1100 498 z"},"A":{"x_min":0,"x_max":977,"ha":977,"o":"m 1098 141 q 1079 129 1061 117 q 1040 105 1022 102 q 968 74 907 9 q 863 -37 819 -37 q 759 -37 713 14 q 674 69 634 124 q 608 100 572 100 q 546 100 457 118 q 433 63 388 22 q 342 -20 309 -20 q 255 -20 217 7 q 183 31 149 56 q 98 82 10 82 l 9 97 q 34 97 34 97 q 58 97 76 94 q 189 109 283 260 q 339 351 370 452 q 346 455 302 455 q 189 455 158 355 q 158 320 156 308 q 153 295 148 277 l 134 282 q 137 290 141 309 q 144 325 144 342 q 144 386 119 457 q 94 528 94 556 q 94 606 132 639 q 171 672 223 672 q 275 672 368 652 q 461 632 519 632 q 594 632 658 664 q 703 686 777 746 l 787 737 q 739 680 736 676 q 709 637 709 598 q 709 549 746 438 q 789 307 848 222 q 924 113 1005 113 q 1027 113 1048 126 q 1068 138 1088 151 z m 567 268 q 551 310 544 373 l 520 273 z"},"f":{"x_min":0,"x_max":350,"ha":350,"o":"m 449 617 q 449 600 423 575 q 372 527 367 522 q 333 483 319 437 l 304 441 q 309 514 271 514 q 251 514 245 488 q 243 477 243 440 q 243 416 247 410 q 254 396 283 396 q 326 396 366 434 l 378 424 q 352 384 330 295 q 325 260 320 225 q 311 189 280 189 q 264 189 240 201 q 236 171 254 109 q 274 40 274 11 q 274 -4 264 -16 q 253 -29 240 -29 q 222 -29 184 -13 q 145 3 120 3 q 40 3 8 -136 l -8 -132 q 32 15 32 280 q 32 325 28 396 q 24 466 24 511 q 24 597 91 645 q 151 688 240 688 q 298 688 348 670 q 398 653 403 653 q 449 653 449 617 z"},"Q":{"x_min":0,"x_max":1115,"ha":1115,"o":"m 1110 222 q 1110 122 1056 24 q 997 -84 918 -84 q 862 -84 769 -40 q 676 3 588 3 q 550 3 492 -12 q 434 -27 396 -27 q 250 -27 139 80 q 28 187 28 336 q 28 487 143 591 q 255 692 411 692 q 558 692 660 580 q 759 470 759 318 q 759 245 731 175 q 770 179 850 156 q 934 131 975 131 q 1026 131 1058 167 q 1089 203 1089 261 q 1089 290 1081 321 l 1097 325 q 1110 229 1110 222 z m 487 324 q 487 375 447 433 q 405 495 360 495 q 328 495 306 457 q 288 425 288 393 q 288 278 368 221 q 402 257 423 257 q 430 257 444 250 q 463 242 469 240 q 487 279 487 324 z"},"w":{"x_min":0,"x_max":780,"ha":780,"o":"m 834 470 q 787 424 768 393 q 742 351 742 300 q 742 268 746 217 q 750 166 750 134 q 750 74 702 17 q 650 -45 582 -45 q 470 -45 410 21 q 354 -31 257 -31 q 151 -31 108 31 q 76 77 76 170 q 76 288 75 303 q 67 379 28 409 l 13 409 q -18 409 -65 413 l -63 429 q -29 425 13 425 q 75 425 150 458 q 226 492 257 492 q 271 492 282 478 q 293 465 293 450 q 293 442 278 359 q 263 276 263 227 q 263 165 285 165 q 306 165 315 208 q 318 226 323 290 q 324 304 322 326 q 320 347 320 358 q 320 432 363 452 q 377 459 461 467 q 529 474 565 510 l 576 498 q 498 405 498 235 q 498 162 526 162 q 563 162 563 277 q 563 292 559 315 q 555 338 555 352 q 555 448 608 448 q 624 448 654 442 q 685 436 705 436 q 765 436 824 483 z"},"-":{"x_min":0,"x_max":356,"ha":356,"o":"m 357 398 q 339 392 328 341 q 314 274 304 254 q 281 209 234 209 q 216 209 188 213 q 159 217 140 217 q 91 217 68 208 q 35 196 7 158 l -7 168 q 9 193 47 294 q 70 353 109 353 q 129 353 160 346 q 190 339 211 339 q 243 339 284 364 q 317 388 350 412 z"},"E":{"x_min":0,"x_max":870,"ha":870,"o":"m 914 311 q 890 277 865 243 q 823 177 794 71 q 792 49 789 27 q 784 -5 765 -21 q 739 -43 681 -43 q 607 -43 418 -10 q 228 22 132 22 q 86 22 -24 -6 l -28 10 q 20 23 54 32 q 155 58 155 344 q 155 453 145 504 q 123 614 55 614 q 51 614 -17 631 l -15 647 q 74 627 114 627 q 175 627 333 670 q 491 714 593 714 q 710 714 739 696 q 764 680 764 612 q 764 553 730 470 q 695 382 693 340 l 677 341 q 679 362 686 392 q 692 417 691 420 q 675 502 559 502 q 531 502 484 496 q 438 489 415 489 q 397 489 379 492 q 375 463 375 439 q 410 433 445 433 q 538 433 634 472 q 609 432 597 366 q 584 289 578 276 q 562 238 519 238 q 490 238 447 250 q 401 264 383 265 q 383 231 393 216 q 485 181 620 181 q 815 181 899 319 z"},"s":{"x_min":0,"x_max":490,"ha":490,"o":"m 466 398 q 466 382 444 332 q 421 281 423 242 l 408 242 q 407 283 352 313 q 308 336 277 336 q 248 336 248 327 q 248 306 303 277 q 383 234 406 215 q 461 170 461 111 q 461 42 397 0 q 339 -37 258 -37 q 182 -37 119 -15 q 45 10 45 50 q 45 59 56 83 q 66 107 66 123 q 66 169 20 211 q -5 221 -30 225 l -29 240 q 38 229 111 179 q 176 134 215 134 q 235 134 235 141 q 235 160 180 190 q 99 232 76 250 q 21 294 21 347 q 21 410 108 451 q 184 486 279 486 q 336 486 401 454 q 466 423 466 398 z"},">":{"x_min":0,"x_max":447,"ha":447,"o":"m 461 277 q 326 215 191 152 q 77 93 77 45 q 77 28 83 2 l 74 -3 q 14 46 14 122 q 14 189 82 239 q 105 256 183 292 q 135 355 78 355 q 53 355 32 310 l 17 313 q 11 385 37 451 q 65 523 109 523 q 132 523 183 477 q 277 390 295 376 q 377 311 461 277 z"},"l":{"x_min":0,"x_max":302,"ha":302,"o":"m 273 661 q 273 678 258 525 q 242 372 242 238 q 242 192 252 120 q 263 47 263 26 q 263 15 253 6 q 243 -3 230 -3 q 217 -3 192 6 q 166 14 149 14 q 97 14 45 -28 q 39 -76 37 -96 l 22 -94 q 33 4 44 103 q 59 243 59 348 q 59 541 0 633 q -33 629 -78 632 l -76 648 q -58 646 -40 646 q 30 646 117 676 q 204 705 233 705 q 273 705 273 661 z"},"8":{"x_min":0,"x_max":686,"ha":686,"o":"m 683 220 q 683 91 569 13 q 465 -60 314 -60 q 197 -60 102 7 q 4 76 4 171 q 4 249 92 357 q 41 416 41 474 q 41 575 163 636 q 270 690 409 690 q 502 690 575 649 q 657 604 657 534 q 657 448 565 378 q 683 314 683 220 z m 430 523 q 430 534 420 542 q 409 549 397 549 q 354 549 308 524 q 263 499 263 471 q 263 442 306 442 q 349 442 390 468 q 430 495 430 523 z m 444 209 q 444 258 348 267 q 306 271 266 251 q 226 231 226 203 q 226 177 261 158 q 296 139 334 139 q 373 139 408 160 q 444 181 444 209 z"},"\\":{"x_min":0,"x_max":479,"ha":479,"o":"m 576 -38 l 571 -53 q 531 -34 496 -31 q 499 -31 421 -31 q 348 -31 303 30 q 272 72 237 176 q 194 306 173 351 q 101 502 57 573 q -13 683 -72 701 l -68 716 q -16 694 -15 694 q 11 685 38 685 q 117 685 167 633 q 205 594 238 510 q 265 437 293 363 q 371 183 416 110 q 493 -15 576 -38 z"},"e":{"x_min":0,"x_max":530,"ha":530,"o":"m 524 265 q 465 165 473 89 q 481 20 406 -12 q 357 -33 296 -33 q 189 -33 111 33 q 30 101 30 202 q 30 327 126 407 q 216 482 346 482 q 406 482 452 446 q 499 410 499 356 q 499 269 434 214 q 368 159 271 159 q 294 145 325 145 q 454 145 510 271 z m 311 310 q 311 327 290 327 q 261 327 238 298 q 216 268 221 237 q 251 241 278 259 q 311 281 311 310 z"},"b":{"x_min":0,"x_max":629,"ha":629,"o":"m 597 171 q 597 80 536 24 q 476 -31 389 -31 q 350 -31 294 -11 q 238 9 183 9 q 116 9 66 -9 l 66 -10 l 64 -10 q 21 -24 -34 -56 l -42 -43 q 10 -12 53 4 q 78 93 86 156 q 93 220 90 309 q 87 400 84 490 q 73 586 25 614 q -4 611 -39 611 l -39 628 q 45 628 112 645 q 143 653 202 676 q 245 693 271 693 q 317 693 317 637 q 317 635 297 546 q 277 457 278 409 q 330 465 406 465 q 478 465 538 369 q 597 273 597 171 z m 401 186 q 401 219 377 251 q 350 286 317 286 q 286 286 286 249 q 286 209 307 179 q 330 145 366 145 q 401 145 401 186 z"},"%":{"x_min":0,"x_max":873,"ha":873,"o":"m 875 174 q 875 100 822 48 q 768 -5 693 -5 q 612 -5 549 54 q 486 114 486 196 q 486 275 536 328 q 586 382 661 382 q 749 382 812 322 q 875 261 875 174 z m 756 701 q 697 683 627 573 q 581 501 510 351 q 488 306 446 176 q 412 72 381 30 q 336 -31 263 -31 q 185 -31 188 -31 q 152 -34 112 -53 l 108 -38 q 190 -15 267 110 q 313 185 390 363 q 418 437 445 510 q 478 594 516 633 q 567 685 646 685 q 673 685 699 694 q 702 695 751 716 z m 399 465 q 399 391 346 338 q 292 286 217 286 q 135 286 72 345 q 10 404 10 487 q 10 565 60 618 q 110 672 185 672 q 273 672 336 612 q 399 552 399 465 z m 732 174 q 732 206 714 231 q 696 256 666 256 q 636 256 636 207 q 636 179 652 158 q 667 136 691 136 q 707 136 720 148 q 732 159 732 174 z m 256 465 q 256 496 238 522 q 219 547 190 547 q 160 547 160 497 q 160 470 176 448 q 191 427 215 427 q 231 427 244 438 q 256 450 256 465 z"},"m":{"x_min":0,"x_max":952,"ha":952,"o":"m 1020 116 q 980 111 950 93 l 950 92 q 933 81 880 23 q 844 -17 800 -17 q 730 -17 693 59 q 679 86 649 201 q 628 277 600 277 q 563 277 563 171 q 563 144 573 102 q 583 59 583 43 q 583 26 571 13 q 559 0 543 0 q 522 0 484 22 q 445 43 420 43 q 387 43 364 -11 q 363 -23 363 -48 q 363 -66 370 -89 l 354 -92 q 347 -71 347 -48 q 347 -22 350 18 q 352 57 352 83 q 352 291 294 291 q 263 291 263 217 q 263 181 277 123 q 291 65 291 46 q 291 23 285 14 q 275 0 246 0 q 223 0 190 14 q 156 29 134 29 q 86 29 55 -34 q 51 -66 51 -74 q 51 -86 58 -114 l 43 -118 q 35 -83 35 -74 q 35 -55 55 64 q 75 183 75 257 q 75 371 28 426 q 14 428 -27 433 l -23 450 q 13 442 34 442 q 62 442 140 470 q 217 499 237 499 q 253 499 264 486 q 274 473 274 457 q 274 449 275 446 q 327 488 397 488 q 487 488 529 390 q 606 482 694 482 q 773 482 808 401 q 832 319 855 237 q 887 138 950 110 q 983 127 1018 131 z"},"#":{"x_min":0,"x_max":468,"ha":468,"o":"m 479 654 q 426 597 383 501 q 427 493 443 447 q 448 431 466 378 q 413 413 349 418 q 349 417 349 417 q 348 417 348 416 q 341 400 334 380 q 403 382 423 323 q 427 307 445 254 q 389 291 309 295 q 289 223 269 192 q 242 149 202 149 q 199 149 177 150 q 159 151 139 150 q 193 201 230 293 q 224 293 214 292 q 189 290 173 288 q 154 220 134 189 q 107 149 68 149 q 65 149 43 150 q 26 151 6 150 q 57 198 93 283 q 36 291 11 359 q 9 366 -9 405 q 49 373 126 366 q 127 370 141 406 q 59 403 32 483 q 30 491 22 505 l 32 516 q 79 493 167 489 q 189 565 210 597 q 242 644 296 644 q 307 644 345 654 q 290 593 245 489 q 265 492 304 497 q 324 568 346 600 q 378 644 430 644 q 442 644 479 654 z m 279 419 q 262 417 234 416 q 219 415 213 414 q 214 420 214 418 q 207 397 195 364 l 194 364 q 217 364 261 370 q 267 387 279 421 q 281 426 279 419 z"},",":{"x_min":0,"x_max":217,"ha":217,"o":"m 221 130 q 197 112 177 52 q 154 -20 121 -62 q 65 -132 -53 -186 q 21 -64 29 38 q 33 89 93 112 q 153 129 213 145 z"},"n":{"x_min":0,"x_max":633,"ha":633,"o":"m 747 110 q 689 97 643 62 q 611 34 578 6 q 545 -22 510 -22 q 437 -22 398 56 q 388 76 351 200 q 328 278 294 278 q 261 278 261 209 q 261 172 276 110 q 292 49 292 31 q 292 -7 250 -7 q 225 -7 186 8 q 148 23 123 23 q 96 23 59 -19 q 52 -54 45 -110 l 30 -108 q 43 -19 57 69 q 70 162 70 224 q 70 307 62 348 q 50 413 15 430 q -14 427 -47 427 l -47 443 q 11 443 114 477 q 218 511 249 511 q 262 511 272 498 q 283 486 283 469 q 283 444 283 444 q 336 487 393 487 q 478 487 514 395 q 538 305 561 215 q 593 112 664 94 q 701 116 743 126 z"},"h":{"x_min":0,"x_max":678,"ha":678,"o":"m 751 112 q 716 102 675 70 l 675 70 l 674 70 q 633 34 593 -2 q 549 -39 520 -39 q 441 -39 409 46 q 403 61 377 205 q 361 290 320 290 q 284 290 284 207 q 284 174 295 118 q 306 63 306 41 q 306 24 295 8 q 284 -7 269 -7 q 251 -7 216 7 q 182 21 160 21 q 86 21 53 -75 l 51 -74 q 51 -74 45 -113 l 30 -111 q 59 62 67 119 q 82 241 82 360 q 82 564 11 621 q -30 612 -70 612 l -70 629 q 6 630 127 668 q 248 705 266 705 q 287 705 304 694 q 321 682 321 663 q 321 643 307 566 q 293 486 292 430 q 344 466 354 471 q 388 489 426 489 q 518 489 548 400 q 565 311 581 221 q 604 115 674 87 q 712 118 748 128 z"},"z":{"x_min":0,"x_max":599,"ha":599,"o":"m 650 183 q 650 107 613 34 q 570 -49 510 -49 q 444 -49 312 -19 q 180 11 136 11 q 67 11 -45 -20 q 18 58 127 148 q 223 228 261 285 q 214 300 179 300 q 139 300 119 293 q 88 282 76 251 q 82 241 92 220 l 79 212 q 32 298 32 357 q 32 413 42 435 q 58 473 108 473 q 150 473 249 459 q 348 445 382 445 q 470 445 598 476 l 372 156 q 374 156 439 140 q 481 130 502 130 q 543 130 587 148 q 631 166 631 183 q 631 209 615 228 l 629 236 q 650 210 650 183 z"},"B":{"x_min":0,"x_max":763,"ha":763,"o":"m 753 190 q 753 99 688 40 q 624 -19 522 -19 q 456 -19 354 7 q 252 33 196 33 q 132 33 33 -6 l 28 10 q 96 35 121 56 q 157 87 172 154 q 188 225 188 370 q 188 428 186 504 q 36 510 16 421 l 0 425 q 19 484 51 530 q 87 581 90 589 q 123 668 162 683 q 195 696 346 696 q 483 696 584 642 q 699 580 699 474 q 699 409 628 357 q 753 315 753 190 z m 448 442 q 448 454 434 470 q 419 485 410 485 q 393 485 390 372 q 448 407 448 442 z m 486 202 q 486 265 389 311 q 393 260 412 220 q 432 176 458 176 q 486 176 486 202 z"},"K":{"x_min":0,"x_max":1105,"ha":1105,"o":"m 1225 202 q 1181 162 1169 152 q 1139 127 1113 116 l 1113 115 q 1078 105 1033 61 q 968 -4 955 -14 q 906 -51 852 -51 q 793 -51 698 20 q 616 88 533 155 q 439 229 386 233 q 381 195 381 156 q 381 25 437 7 q 457 9 510 22 l 514 6 q 444 -11 406 -11 q 361 -11 292 4 q 222 19 177 19 q 119 19 34 -10 l 28 6 q 62 17 128 33 q 152 45 169 144 q 185 235 185 332 q 185 609 106 617 l 106 618 q 75 615 69 616 q 41 614 -13 623 l -11 639 q 42 632 68 632 q 130 632 227 668 q 324 704 359 704 q 413 704 413 638 q 413 622 404 567 q 394 512 395 479 q 444 521 509 624 q 553 695 600 695 q 631 695 665 669 q 721 628 732 622 q 780 596 843 596 q 869 596 913 619 l 921 603 q 867 579 843 579 q 837 579 827 580 q 817 580 812 580 q 744 569 701 516 q 611 404 565 367 q 670 320 769 250 q 887 166 902 158 q 969 121 1048 121 q 1096 121 1137 149 q 1153 159 1213 214 z"},"R":{"x_min":0,"x_max":1000,"ha":1000,"o":"m 1072 97 q 1002 85 955 46 q 922 13 888 -19 q 851 -51 801 -51 q 750 -51 664 18 q 621 53 500 169 q 393 271 335 312 q 336 301 336 279 q 336 229 346 148 q 357 67 357 27 q 357 9 347 -4 q 337 -18 321 -18 q 307 -18 269 -6 q 231 6 207 6 q 161 6 134 -25 q 107 -56 107 -112 q 107 -123 108 -135 l 92 -136 q 94 -83 109 76 q 121 209 121 306 q 121 638 61 639 q 25 636 -18 636 l -18 653 q 77 653 155 670 q 200 680 260 702 q 306 719 324 719 q 363 719 363 681 q 363 655 363 655 q 456 716 552 716 q 637 716 700 669 q 768 618 768 540 q 768 472 735 420 q 702 367 642 345 q 723 270 804 195 q 930 82 979 81 q 1020 104 1070 113 z m 436 501 q 436 525 414 525 q 334 525 332 401 q 436 446 436 501 z"},"T":{"x_min":0,"x_max":776,"ha":776,"o":"m 761 596 q 761 499 719 429 q 704 405 630 320 l 618 332 q 656 374 674 396 q 673 417 648 432 q 617 452 560 452 q 527 452 487 445 q 467 359 470 264 q 474 157 480 118 q 491 41 522 23 l 521 21 q 573 26 624 26 l 624 9 q 517 9 431 -11 q 376 -23 320 -47 q 274 -67 264 -67 q 228 -67 228 -18 q 228 29 247 132 q 265 228 262 294 q 258 376 243 452 q 131 455 87 421 q 55 397 16 305 l 0 312 q 26 367 33 401 q 37 417 40 478 q 41 501 38 533 q 34 569 34 588 q 34 696 110 696 q 131 696 229 680 q 327 664 388 664 q 474 664 571 679 q 668 694 686 694 q 724 694 744 662 q 761 636 761 596 z"},"P":{"x_min":0,"x_max":818,"ha":818,"o":"m 813 501 q 813 399 714 323 q 628 257 522 244 q 502 266 480 283 q 429 326 378 342 l 378 321 q 378 273 388 196 q 399 119 399 96 q 399 43 335 24 q 219 -10 211 -15 q 140 -55 128 -157 l 112 -156 q 114 -63 133 113 q 151 277 151 390 q 151 617 84 646 l 84 647 q 34 640 -4 643 l -2 659 q 78 654 214 692 q 355 731 369 731 q 426 731 426 690 l 426 675 q 519 716 597 716 q 686 716 750 653 q 813 590 813 501 z m 517 480 q 517 531 474 531 q 416 531 394 485 q 378 452 378 384 q 447 400 474 414 q 517 438 517 480 z"},"|":{"x_min":0,"x_max":264,"ha":264,"o":"m 236 5 q 236 -16 224 -34 q 211 -51 196 -51 q 175 -51 144 -32 q 114 -13 82 -13 q 58 -13 43 -76 l 28 -72 q 58 87 58 252 q 58 493 13 628 q 3 626 -3 625 l -5 640 q 37 645 107 674 q 171 700 188 700 q 206 700 221 682 q 236 664 236 642 q 236 576 224 470 q 213 364 213 296 q 213 231 224 126 q 236 20 236 5 z"},"t":{"x_min":0,"x_max":431,"ha":431,"o":"m 438 281 q 394 218 394 149 q 394 132 397 107 q 400 82 400 66 q 400 -34 260 -34 q 52 -34 52 191 q 52 233 56 304 q 61 376 61 411 q 61 545 0 586 q -29 583 -69 588 l -67 603 q -44 600 -22 600 q 51 600 135 640 q 219 679 246 679 q 261 679 272 666 q 283 654 283 637 q 283 629 270 575 q 258 521 259 477 l 437 506 q 393 462 369 404 q 349 358 349 326 q 349 302 336 284 q 324 266 303 266 q 298 266 290 270 q 283 273 278 272 q 257 270 257 231 q 257 179 291 179 q 328 179 366 220 q 396 256 426 291 z"},"M":{"x_min":0,"x_max":1155,"ha":1155,"o":"m 1208 202 q 1137 112 1046 48 q 954 -15 900 -15 q 853 -15 832 45 q 819 84 812 178 q 804 284 797 316 q 738 173 582 -9 q 486 118 452 167 q 393 254 376 307 q 342 245 337 154 q 334 93 331 32 q 322 -19 275 -19 q 247 -19 203 -4 q 159 12 130 12 q 77 12 16 -26 q 7 -45 -31 -133 l -47 -127 q -2 -21 81 143 q 161 302 185 362 q 229 469 229 542 q 229 596 192 611 q 126 606 74 612 l 76 628 q 107 624 139 624 q 216 624 302 646 q 355 660 424 686 q 481 708 489 708 q 524 708 531 667 q 537 616 543 564 q 557 486 602 424 q 676 514 676 624 q 676 695 722 695 q 740 695 784 692 q 828 689 856 689 q 907 689 996 721 l 1001 705 q 974 698 968 667 q 966 656 966 604 q 966 517 1018 347 q 1074 158 1126 137 q 1164 173 1194 212 z"},"g":{"x_min":0,"x_max":582,"ha":582,"o":"m 573 457 q 573 452 562 360 q 550 268 550 211 q 550 175 556 118 q 562 61 562 26 q 562 -93 457 -178 q 356 -260 225 -260 q 133 -260 96 -242 q 49 -219 49 -157 q 49 -148 52 -134 q 54 -119 54 -109 q 54 -48 14 -3 q -26 42 -88 52 l -88 68 q -66 70 -9 38 q 80 -12 103 -22 q 176 -55 233 -55 q 281 -55 322 -38 q 369 -19 369 9 q 369 20 342 20 q 321 20 286 10 q 250 0 228 0 q 149 0 100 35 q 43 77 43 157 q 43 268 134 372 q 222 473 310 473 q 333 473 366 459 q 400 445 422 445 q 447 445 483 466 q 519 488 539 488 q 551 488 562 478 q 573 469 573 457 z m 371 271 q 371 287 362 300 q 353 314 339 314 q 299 314 270 269 q 245 230 245 194 q 245 179 254 166 q 263 153 276 153 q 316 153 344 190 q 371 226 371 271 z"},"j":{"x_min":0,"x_max":315,"ha":315,"o":"m 271 591 q 271 506 40 466 l 33 480 q 79 509 110 557 q 131 591 152 626 q 175 656 210 656 q 234 656 252 637 q 271 618 271 591 z m 291 458 q 291 446 274 355 q 257 264 257 207 q 257 179 266 138 q 274 96 274 70 q 274 31 238 4 q 195 -22 152 -47 q 90 -86 49 -138 q 1 -241 -94 -336 l -106 -325 q 11 -210 56 -76 q 95 39 95 218 q 95 388 37 429 q 21 427 4 427 q -13 427 -31 429 l -30 444 q -14 442 3 442 q 61 442 140 472 q 218 503 251 503 q 267 503 279 488 q 291 474 291 458 z"},"i":{"x_min":0,"x_max":286,"ha":286,"o":"m 271 592 q 271 507 40 467 l 33 481 q 79 510 110 558 q 131 592 152 627 q 175 657 210 657 q 234 657 252 638 q 271 619 271 592 z m 266 439 q 266 429 254 324 q 243 218 243 153 q 243 123 250 76 q 257 30 257 10 q 257 -3 246 -12 q 234 -21 220 -21 q 205 -21 176 -12 q 148 -4 129 -4 q 100 -4 57 -32 q 43 -95 43 -118 l 27 -118 q 27 -62 56 52 q 84 167 84 228 q 84 391 26 419 q -8 413 -42 414 l -42 430 q 1 430 30 435 l 30 436 l 30 435 q 74 443 143 470 q 201 492 220 492 q 266 492 266 439 z"},"y":{"x_min":0,"x_max":532,"ha":532,"o":"m 569 461 q 495 442 495 266 q 495 218 505 145 q 515 72 515 26 q 515 -100 413 -194 q 316 -283 195 -283 q 115 -283 64 -259 q -1 -229 -1 -163 q -1 -92 -44 -32 q -88 28 -146 32 l -144 48 q -112 46 -51 10 q 42 -45 61 -53 q 131 -87 192 -87 q 239 -87 276 -70 q 319 -51 319 -20 q 319 -11 295 -11 q 280 -11 254 -17 q 229 -23 212 -23 q 138 -23 100 34 q 68 81 68 157 q 68 178 69 212 q 70 247 70 269 q 70 362 14 397 q -20 393 -50 396 l -49 411 q -10 409 18 413 q 66 419 137 451 q 201 479 238 479 q 255 479 268 469 q 281 459 281 443 q 281 415 266 350 q 252 284 252 237 q 252 168 272 168 q 308 168 308 309 q 308 390 311 405 q 322 456 367 456 q 388 456 420 449 q 451 442 472 442 q 511 442 562 475 z"},"@":{"x_min":0,"x_max":709,"ha":709,"o":"m 705 460 q 705 349 622 252 q 546 163 479 163 q 438 163 418 180 q 399 197 390 197 q 381 197 353 184 q 325 172 295 172 q 251 172 218 198 q 186 225 186 266 q 186 327 240 398 q 295 468 345 468 q 361 468 386 459 q 411 450 425 450 q 436 450 448 463 q 461 476 479 476 q 503 476 503 440 q 503 416 496 380 q 490 343 490 320 q 490 267 511 267 q 540 267 560 315 q 579 359 578 410 q 577 480 524 529 q 472 578 401 578 q 300 578 208 472 q 116 367 116 259 q 116 169 172 114 q 231 55 336 55 q 382 55 424 76 q 465 96 507 119 l 517 107 q 480 58 414 18 q 335 -29 265 -29 q 161 -29 94 38 q 26 105 26 203 q 26 383 156 522 q 285 662 468 662 q 561 662 631 607 q 705 548 705 460 z m 380 350 q 380 370 363 370 q 340 370 324 344 q 307 317 307 295 q 307 282 325 282 q 343 282 362 307 q 380 332 380 350 z"},".":{"x_min":0,"x_max":192,"ha":192,"o":"m 176 67 q 176 33 153 8 q 130 -16 96 -16 q 63 -16 40 6 q 17 29 17 62 q 17 95 40 118 q 63 142 95 142 q 128 142 152 120 q 176 99 176 67 z"},"p":{"x_min":0,"x_max":606,"ha":606,"o":"m 589 220 q 589 118 533 45 q 473 -34 377 -34 q 339 -34 275 12 q 271 -14 271 -45 q 271 -87 280 -158 q 289 -229 289 -249 q 289 -264 278 -274 q 266 -283 251 -283 q 234 -283 194 -268 q 154 -254 129 -254 q 21 -254 25 -390 l 10 -391 q 10 -312 44 -114 q 78 83 78 197 q 78 379 7 431 q -5 432 -63 439 l -61 454 q -7 448 20 448 q 73 448 156 472 q 240 496 249 496 q 265 496 278 486 q 291 475 291 460 l 291 442 q 347 476 394 476 q 478 476 535 395 q 589 319 589 220 z m 413 263 q 413 278 402 292 q 391 306 377 306 q 347 306 314 268 q 279 227 279 187 q 279 171 290 158 q 300 145 314 145 q 348 145 380 182 q 413 220 413 263 z"},"X":{"x_min":0,"x_max":1000,"ha":1000,"o":"m 1175 -1 l 1171 -17 q 1123 -8 1069 16 q 1048 18 1029 18 q 973 18 914 -8 q 854 -33 822 -33 q 766 -33 703 38 q 671 74 607 172 q 542 105 478 38 q 402 -33 354 -33 q 328 -33 234 15 q 139 63 84 61 q 63 57 44 57 q 5 57 -29 72 l -24 86 q 7 73 43 73 q 163 73 331 208 q 421 279 503 370 q 449 469 381 543 q 308 623 256 629 q 219 626 156 628 l 156 644 q 208 643 253 646 q 323 652 405 679 q 479 704 531 704 q 583 704 616 650 q 636 618 658 543 q 693 588 728 634 q 773 689 825 689 q 860 689 928 642 q 996 596 1044 596 q 1067 596 1109 619 l 1117 605 q 1072 579 1044 579 l 1036 579 q 861 484 766 350 q 809 261 880 181 q 1011 33 1175 -1 z"},"*":{"x_min":0,"x_max":298,"ha":298,"o":"m 303 512 q 283 511 262 495 q 245 482 227 469 q 232 441 237 414 q 243 384 254 376 l 244 364 q 233 375 213 386 q 184 403 182 404 q 180 390 170 365 q 155 333 152 322 l 137 324 q 137 338 126 363 q 118 382 109 401 q 90 391 71 382 q 47 368 35 353 l 23 364 q 27 368 35 407 q 43 446 56 463 q 45 470 26 493 q 6 516 -6 523 l 3 536 q 13 529 30 529 q 39 529 60 532 q 81 535 91 535 q 101 535 109 533 q 113 557 128 587 q 144 617 147 630 l 162 630 q 163 618 175 592 q 188 563 191 547 q 196 548 201 548 q 211 548 246 536 q 278 524 302 528 z"},"Y":{"x_min":0,"x_max":945,"ha":945,"o":"m 1073 564 l 1059 556 q 1039 588 1005 616 q 964 621 875 558 q 780 491 714 400 q 635 292 635 193 q 635 166 642 124 q 648 82 648 57 q 648 -9 608 -9 q 599 -9 564 0 q 530 10 507 8 q 374 -4 321 -167 l 305 -162 q 379 8 379 190 q 379 258 367 322 q 205 604 62 637 l 62 638 q -5 610 -69 572 l -77 586 q 130 715 366 715 q 415 715 458 647 q 481 611 523 511 q 563 579 656 645 q 746 709 792 709 q 869 709 947 672 q 1033 631 1073 564 z"},"c":{"x_min":0,"x_max":493,"ha":493,"o":"m 485 270 q 481 222 455 190 q 442 159 441 120 q 441 131 441 57 q 441 23 377 -5 q 317 -31 253 -31 q 153 -31 80 39 q 8 109 8 208 q 8 332 112 413 q 207 488 335 488 q 394 488 436 470 q 477 451 477 425 q 477 420 459 401 q 435 374 419 348 q 392 305 373 246 q 372 238 368 224 l 352 229 l 352 230 q 354 238 357 250 q 360 263 360 295 q 360 314 338 325 q 321 334 301 334 q 259 334 228 306 q 196 278 196 238 q 196 196 236 171 q 272 149 320 149 q 380 149 419 178 q 464 210 470 271 z"},"!":{"x_min":0,"x_max":380,"ha":380,"o":"m 360 609 q 360 566 350 500 q 340 433 340 374 q 340 318 347 263 q 354 208 354 203 q 354 160 320 160 q 310 160 280 177 q 249 194 211 194 q 160 194 116 153 q 103 115 99 101 q 91 71 90 40 l 75 42 q 78 92 104 162 l 103 163 l 104 164 q 144 274 144 431 q 144 582 66 611 q 16 606 9 606 q -6 606 -57 613 l -55 629 q -14 622 9 622 q 68 622 184 659 q 299 696 309 696 q 360 696 360 609 z m 335 68 q 335 21 302 -12 q 269 -46 223 -46 q 177 -46 144 -12 q 111 21 111 68 q 111 114 144 146 q 176 179 223 179 q 270 179 302 146 q 335 114 335 68 z"},"/":{"x_min":0,"x_max":479,"ha":479,"o":"m 550 701 q 491 683 421 573 q 377 502 305 351 q 284 306 241 176 q 206 72 175 30 q 130 -31 57 -31 q -20 -31 -17 -31 q -53 -34 -93 -53 l -98 -38 q -15 -15 62 110 q 108 185 185 363 q 213 437 240 510 q 273 594 311 633 q 361 685 440 685 q 467 685 493 694 q 494 694 546 716 z"},"[":{"x_min":0,"x_max":331,"ha":331,"o":"m 343 682 q 317 679 291 677 q 254 654 232 548 q 213 456 213 349 q 213 214 228 103 q 245 -30 277 -62 q 299 -63 341 -71 l 337 -87 q 294 -77 246 -77 q 209 -77 144 -96 q 79 -114 66 -114 q 45 -114 32 -99 q 20 -84 20 -63 q 20 -64 34 46 q 49 155 49 286 q 49 372 33 513 q 17 654 17 666 q 17 736 77 736 q 109 736 168 714 q 226 693 271 693 q 309 693 341 697 z"},"6":{"x_min":0,"x_max":599,"ha":599,"o":"m 580 249 q 580 130 498 45 q 417 -40 300 -40 q 179 -40 94 48 q 10 137 10 260 q 10 428 116 551 q 226 679 386 679 q 447 679 504 659 q 566 637 566 609 q 566 588 519 532 q 465 468 449 423 q 507 405 544 358 q 580 311 580 249 z m 421 429 q 406 497 366 497 q 322 497 286 456 q 254 420 241 369 q 307 430 391 430 q 411 430 421 429 z m 355 214 q 355 252 327 273 q 303 291 266 291 q 245 291 238 290 q 244 165 311 165 q 329 165 342 180 q 355 195 355 214 z"},"r":{"x_min":0,"x_max":513,"ha":513,"o":"m 547 362 q 547 334 512 306 q 480 282 448 257 q 413 224 413 183 q 413 166 431 131 l 416 124 q 397 165 397 183 l 397 190 q 383 294 332 294 q 276 294 276 177 q 276 149 284 104 q 291 58 291 38 q 291 23 282 9 q 272 -5 262 -5 q 242 -5 210 10 q 178 26 157 26 q 99 26 67 -50 q 65 -70 65 -76 q 65 -99 67 -115 l 51 -117 q 49 -100 49 -76 q 49 -56 74 62 q 100 179 100 253 q 100 394 28 429 q -5 432 -43 432 l -43 448 q -36 448 30 444 q 83 441 152 471 q 220 501 262 501 q 303 501 303 432 q 370 484 428 484 q 476 484 512 446 q 547 408 547 362 z"},"2":{"x_min":0,"x_max":860,"ha":860,"o":"m 845 297 q 845 171 796 80 q 741 -23 650 -23 q 570 -23 445 0 q 320 23 253 23 q 188 23 131 10 q 90 1 -8 -31 q 221 238 229 248 q 363 415 363 471 q 363 491 328 491 q 268 491 208 442 q 148 393 148 349 l 147 349 q 153 314 155 281 l 140 279 q 134 357 114 406 q 107 422 80 465 q 63 491 63 520 q 63 589 177 640 q 283 688 402 688 q 494 688 572 637 q 653 583 653 514 q 653 454 620 402 q 600 371 544 316 q 489 261 467 227 q 617 210 653 210 q 721 210 767 232 q 823 258 823 311 q 823 337 803 370 l 817 379 l 818 378 q 845 338 845 297 z"},"{":{"x_min":0,"x_max":320,"ha":320,"o":"m 368 722 l 363 707 q 346 711 328 711 q 271 711 234 675 q 194 638 194 577 q 194 536 228 494 q 263 452 263 391 q 263 339 210 314 q 263 293 263 238 q 263 180 228 141 q 194 102 194 52 q 194 -9 232 -45 q 271 -81 328 -81 q 345 -81 363 -77 l 367 -92 q 334 -99 291 -99 q 192 -99 123 -64 q 37 -20 37 65 q 37 125 61 169 q 85 213 85 241 q 85 282 67 298 q 60 304 11 324 q 57 337 67 345 q 85 359 85 400 q 85 428 61 472 q 37 516 37 576 q 37 657 114 700 q 179 735 272 735 q 328 735 368 722 z"},"9":{"x_min":0,"x_max":651,"ha":651,"o":"m 633 357 q 633 201 524 77 q 409 -54 250 -54 q 172 -54 121 -25 q 57 12 57 83 q 57 272 -62 284 l -61 299 q -27 300 28 264 q 78 230 129 196 q 192 159 245 159 q 341 159 383 252 q 320 201 232 207 q 147 213 89 272 q 31 332 31 417 q 31 534 125 614 q 215 690 339 690 q 469 690 551 598 q 633 506 633 357 z m 402 366 q 377 474 313 474 q 292 474 276 462 q 259 450 259 431 q 259 397 295 378 q 325 362 368 362 q 387 362 402 366 z"}," ":{"x_min":0,"x_max":400,"ha":400,"o":""},"I":{"x_min":0,"x_max":455,"ha":455,"o":"m 429 642 q 429 651 415 538 q 401 425 401 310 q 401 247 414 144 q 427 42 427 26 q 427 7 412 -7 q 398 -21 380 -21 q 357 -21 314 -2 q 271 17 244 17 q 206 17 194 -5 q 188 -15 164 -96 l 148 -91 q 202 71 202 286 q 202 398 185 499 q 167 613 138 626 q 134 625 126 625 q 73 625 8 642 l 12 658 q 71 642 126 642 q 163 642 255 671 q 347 700 368 700 q 429 700 429 642 z"},"H":{"x_min":0,"x_max":897,"ha":897,"o":"m 909 679 l 903 663 q 836 689 808 689 q 754 689 716 562 q 681 447 681 323 q 681 221 716 123 q 751 25 797 1 q 814 -8 839 -14 q 868 -20 882 -26 l 876 -42 q 848 -37 790 -15 l 789 -15 q 765 -12 739 -12 q 689 -12 640 -26 q 592 -41 571 -41 q 522 -41 497 12 q 478 51 470 130 q 465 190 460 251 q 428 236 393 240 q 394 181 407 109 q 420 37 420 26 q 420 6 412 -10 q 402 -30 384 -30 q 368 -30 300 -12 q 231 6 188 6 q 103 6 22 -22 l 16 -6 q 106 21 134 21 q 171 38 171 332 q 171 466 153 554 q 138 629 121 629 l 109 629 q 61 629 2 642 l 6 658 q 58 646 109 646 q 139 646 221 666 q 303 685 355 685 q 429 685 429 635 q 429 622 419 558 q 407 489 405 442 q 452 451 469 448 q 471 470 477 519 q 478 527 481 572 q 483 601 491 623 q 501 649 587 679 q 673 709 751 709 q 832 709 909 679 z"},"4":{"x_min":0,"x_max":862,"ha":862,"o":"m 830 474 q 834 444 834 415 q 834 246 729 113 l 630 96 q 631 76 631 62 q 631 -20 594 -20 q 571 -20 534 -8 q 498 3 474 3 q 439 3 402 -44 q 384 -103 379 -110 l 364 -105 q 382 -56 388 -36 q 410 42 412 120 q 261 160 154 160 q 93 160 -8 134 q 95 249 177 350 q 374 594 436 731 q 432 740 427 748 q 425 751 423 755 l 438 763 q 457 725 492 688 q 558 615 644 598 q 624 456 633 316 q 770 318 818 408 q 818 443 814 472 z m 433 319 q 434 360 427 399 q 401 374 376 330 q 401 329 433 319 z"},"~":{"x_min":0,"x_max":260,"ha":260,"o":"m 256 781 q 239 742 222 703 q 202 669 169 672 q 149 677 105 684 q 54 689 10 667 q 32 705 54 744 q 72 770 91 768 q 112 760 162 750 q 187 748 256 781 z"},"D":{"x_min":0,"x_max":828,"ha":828,"o":"m 817 396 q 817 218 712 104 q 607 -11 446 -11 q 394 -11 342 6 q 290 23 272 23 q 151 23 151 -78 q 151 -88 152 -99 l 136 -101 q 134 -77 134 -72 q 134 -75 154 94 q 174 264 174 368 q 174 528 143 593 q 116 649 56 649 q 42 649 4 638 l -1 654 q 46 668 92 668 q 110 668 138 666 q 166 664 184 664 q 218 664 270 676 q 323 688 356 688 q 407 688 429 648 q 489 684 572 684 q 676 684 746 600 q 817 515 817 396 z m 576 360 q 576 409 546 447 q 516 485 470 485 q 431 485 408 471 q 403 424 403 360 q 403 268 417 211 q 478 206 527 252 q 576 298 576 360 z"},"^":{"x_min":0,"x_max":202,"ha":202,"o":"m 197 686 l 190 678 q 166 693 140 702 q 122 708 104 714 q 79 708 16 679 l 9 686 q 35 766 103 798 q 124 783 144 768 q 181 734 197 686 z"},"0":{"x_min":0,"x_max":657,"ha":657,"o":"m 640 346 q 640 194 554 88 q 464 -21 329 -21 q 201 -21 110 80 q 19 180 19 324 q 19 470 109 575 q 199 680 326 680 q 454 680 546 587 q 640 490 640 346 z m 421 286 q 421 362 399 419 q 370 494 314 494 q 279 494 260 460 q 240 427 240 382 q 240 309 272 250 q 306 186 355 186 q 383 186 402 217 q 421 248 421 286 z"},"F":{"x_min":0,"x_max":800,"ha":800,"o":"m 796 645 q 796 600 774 530 q 753 460 753 414 q 753 392 770 351 l 754 345 q 736 392 736 414 q 736 486 624 486 q 601 486 536 476 q 470 467 433 467 q 414 467 398 469 q 390 442 387 398 q 424 406 465 407 q 486 408 517 402 q 548 395 567 395 q 596 395 625 408 q 651 422 677 436 l 688 424 q 667 390 652 321 q 635 245 626 225 q 606 183 564 183 q 549 183 508 195 q 467 207 441 207 q 415 207 385 195 q 383 178 383 161 q 383 128 391 86 q 399 43 399 36 q 399 -15 351 -15 q 331 -15 294 -2 q 256 12 228 12 q 126 12 126 -132 l 109 -131 q 126 -13 142 104 q 163 264 163 390 q 163 640 83 658 q 75 657 14 646 l 10 662 q 87 677 129 677 q 174 677 244 671 q 315 665 360 665 q 443 665 576 694 q 710 722 720 722 q 796 722 796 645 z"},"`":{"x_min":0,"x_max":150,"ha":150,"o":"m 146 676 l 133 666 q 86 701 6 734 q 32 783 78 796 q 101 760 146 676 z"},"k":{"x_min":0,"x_max":671,"ha":671,"o":"m 790 74 q 773 64 756 54 q 738 45 723 43 q 687 30 636 -16 q 595 -54 554 -54 q 482 -54 418 2 q 380 35 323 114 q 273 182 251 194 q 246 172 246 154 q 246 123 253 88 q 260 52 260 43 q 260 3 231 3 q 220 3 192 8 q 164 14 146 14 q 94 14 50 -50 q 46 -82 38 -149 l 23 -147 q 24 -134 54 83 q 70 200 70 294 q 70 418 59 480 q 42 577 -9 608 q -35 605 -73 607 l -73 622 q -5 619 61 636 q 88 642 160 669 q 212 688 240 688 q 258 688 270 672 q 283 657 283 637 q 283 628 268 563 q 253 498 253 439 q 253 415 255 390 q 286 405 336 459 q 376 502 414 502 q 435 502 480 475 q 526 448 557 448 q 574 448 608 462 l 613 447 q 597 440 565 431 q 526 421 478 363 q 422 294 400 281 q 474 206 549 132 q 631 59 714 59 q 732 59 783 88 z"},"u":{"x_min":0,"x_max":538,"ha":538,"o":"m 594 476 q 553 448 523 436 q 492 409 492 333 q 492 298 502 242 q 511 186 511 150 q 511 66 446 12 q 381 -43 282 -43 q 174 -43 113 -3 q 46 41 46 126 q 46 149 50 188 q 53 227 53 251 q 53 367 -5 398 q -48 389 -78 392 l -78 408 q -47 407 1 414 l 1 415 l 2 415 q 57 426 140 461 q 213 491 223 491 q 275 491 275 440 q 275 399 260 334 q 245 269 245 229 q 245 149 274 149 q 307 149 307 261 q 307 285 301 322 q 295 360 295 383 q 295 413 308 434 q 322 455 345 455 q 355 455 397 448 q 439 442 465 442 q 515 442 585 490 z"},"]":{"x_min":0,"x_max":331,"ha":331,"o":"m 312 666 q 312 654 296 513 q 281 372 281 286 q 281 155 296 46 q 310 -64 310 -63 q 310 -84 297 -99 q 284 -114 264 -114 q 251 -114 186 -96 q 121 -77 84 -77 q 35 -77 -8 -87 l -11 -71 q 30 -63 52 -62 q 84 -30 101 103 q 116 214 116 349 q 116 456 97 548 q 75 654 38 677 q 12 679 -13 682 l -11 697 q 21 693 58 693 q 104 693 162 714 q 221 736 252 736 q 312 736 312 666 z"},"U":{"x_min":0,"x_max":678,"ha":678,"o":"m 727 727 q 670 688 633 670 q 593 604 593 498 q 593 438 617 344 q 641 251 641 195 q 641 87 568 28 q 496 -30 356 -30 q 229 -30 150 27 q 66 88 66 192 q 66 252 87 358 q 108 463 108 531 q 108 550 93 578 q 78 607 59 613 q 15 608 -23 612 l -21 628 q -4 626 13 626 q 91 626 189 664 q 287 701 293 701 q 318 701 334 676 q 347 654 347 627 q 347 554 324 440 q 302 326 302 261 q 302 182 344 182 q 387 182 387 264 q 387 322 375 412 q 363 502 363 555 q 363 601 377 632 q 395 671 431 671 q 451 671 487 666 q 523 662 545 662 q 607 662 717 741 z"},"o":{"x_min":0,"x_max":547,"ha":547,"o":"m 540 203 q 540 104 468 34 q 397 -37 297 -37 q 186 -37 102 42 q 18 120 18 231 q 18 337 86 410 q 154 482 254 482 q 372 482 456 400 q 540 319 540 203 z m 341 203 q 341 241 318 274 q 294 306 260 306 q 226 306 226 246 q 226 212 245 186 q 264 159 294 159 q 312 159 326 172 q 341 185 341 203 z"},"N":{"x_min":0,"x_max":842,"ha":842,"o":"m 912 694 q 814 682 778 575 q 755 509 755 393 q 755 316 772 246 q 785 194 819 107 q 786 69 762 27 q 705 -75 703 -183 l 687 -183 q 693 -68 630 20 q 592 73 497 148 q 406 219 382 257 q 374 229 374 159 q 374 134 380 95 q 386 56 386 36 q 386 -15 332 -15 q 302 -15 256 -2 q 210 12 182 12 q 130 12 112 -11 q 89 -40 89 -126 l 72 -126 q 72 -84 105 90 q 138 265 138 375 q 138 488 126 521 q 107 571 35 595 q -7 588 -61 589 l -61 605 q 37 603 119 635 q 163 652 230 695 q 282 728 305 728 q 346 728 380 681 q 412 628 444 575 q 489 504 543 466 q 525 560 525 609 q 525 713 590 713 q 627 713 682 700 q 738 686 788 686 q 839 686 908 710 z"},"+":{"x_min":0,"x_max":460,"ha":460,"o":"m 470 394 q 448 391 430 347 q 402 281 393 268 q 364 226 317 226 q 309 226 301 227 q 299 212 299 199 q 299 141 341 91 l 330 75 q 303 103 219 155 q 164 188 164 226 q 164 242 167 254 q 142 257 125 257 q 67 257 18 215 l 3 228 q 34 257 64 308 q 95 360 106 371 q 131 396 166 391 q 177 390 198 386 q 196 418 179 462 q 163 500 147 537 l 162 543 q 165 521 210 503 q 275 475 289 465 q 331 436 331 388 q 331 379 330 370 q 330 367 328 360 q 363 365 464 410 z"},"G":{"x_min":0,"x_max":781,"ha":781,"o":"m 804 454 q 742 427 722 401 q 696 367 696 297 q 696 244 718 149 q 741 54 741 -36 q 741 -74 710 -159 l 694 -153 q 724 -74 724 -36 q 724 -12 702 2 q 679 15 651 15 q 628 15 544 -9 q 461 -33 408 -33 q 254 -33 137 70 q 16 177 16 330 q 16 512 150 620 q 273 719 456 719 q 583 719 681 674 q 772 632 772 588 q 772 571 740 531 q 701 481 680 417 q 694 422 797 470 z m 614 402 q 589 449 543 474 q 503 495 459 495 q 394 495 346 462 q 294 427 294 369 q 294 318 328 278 q 362 239 408 239 q 436 239 436 258 q 436 279 414 316 q 391 352 391 372 q 391 388 404 399 q 418 410 435 410 q 459 410 506 406 q 553 401 582 401 q 604 401 614 402 z"},"q":{"x_min":0,"x_max":610,"ha":610,"o":"m 611 480 q 611 470 598 413 q 582 345 573 273 q 560 164 560 26 q 560 -51 572 -154 q 586 -274 588 -322 q 591 -379 588 -430 l 572 -430 q 574 -392 572 -329 q 530 -271 477 -271 q 462 -271 438 -280 q 415 -289 400 -289 q 352 -289 352 -223 q 352 -202 361 -147 q 370 -92 370 -57 q 370 -40 368 -4 q 320 -29 229 -29 q 138 -29 82 20 q 27 70 27 149 q 27 258 123 368 q 226 485 346 485 q 367 485 399 475 q 431 465 451 465 q 471 465 512 489 q 552 513 574 513 q 589 513 600 503 q 611 493 611 480 z m 387 274 q 387 291 374 304 q 362 317 346 317 q 304 317 266 266 q 231 219 231 180 q 231 161 246 147 q 260 133 280 133 q 321 133 354 179 q 387 225 387 274 z"},"d":{"x_min":0,"x_max":611,"ha":611,"o":"m 717 65 q 675 62 621 21 q 567 -20 526 -20 q 491 -20 456 -3 q 422 14 409 14 q 396 14 340 -8 q 284 -31 234 -31 q 147 -31 87 26 q 27 82 27 174 q 27 280 93 373 q 161 470 249 470 q 318 470 363 409 q 357 585 302 622 q 284 620 280 620 q 243 620 194 625 l 196 640 q 233 636 280 636 q 317 636 422 669 q 527 702 551 702 q 569 702 582 690 q 594 678 594 660 q 594 655 572 500 q 549 345 549 251 q 549 159 559 116 q 575 44 624 38 q 651 58 665 65 q 689 78 715 80 z m 347 260 q 347 297 311 297 q 273 297 246 263 q 220 229 220 186 q 220 170 231 158 q 242 145 257 145 q 290 145 318 182 q 347 218 347 260 z"},"1":{"x_min":0,"x_max":358,"ha":358,"o":"m 329 8 q 329 -23 288 -23 q 269 -23 236 -16 q 204 -9 184 -9 q 137 -9 111 -45 q 108 -63 90 -131 l 75 -128 q 106 -5 115 59 q 128 146 124 245 q 118 404 116 421 q 106 518 72 537 q 27 509 -11 491 l -19 507 q 61 544 172 624 q 263 689 280 689 q 296 689 308 675 q 321 661 321 646 q 321 653 306 540 q 291 426 291 267 q 291 175 310 94 q 329 14 329 8 z"},"5":{"x_min":0,"x_max":750,"ha":750,"o":"m 737 623 q 737 607 712 550 q 686 494 685 457 q 685 441 687 423 q 690 400 690 381 l 675 380 q 676 432 638 458 q 606 480 554 480 q 510 480 490 471 l 473 433 q 726 340 726 197 q 726 99 640 26 q 553 -46 443 -46 q 292 -46 156 28 q 21 101 21 180 q 21 185 34 206 q 50 232 59 257 q 72 295 72 340 q 72 431 0 500 l 10 512 q 41 488 110 391 q 181 291 231 248 q 312 179 406 179 q 464 179 464 206 q 464 252 383 291 q 309 327 243 327 q 216 327 203 318 q 205 389 256 494 q 313 616 326 682 q 406 659 451 659 q 492 659 554 672 q 617 685 657 685 q 687 685 712 668 q 737 651 737 623 z"}}}
